<svg xmlns="http://www.w3.org/2000/svg" viewBox="0 0 114.53 130.39"><defs><style>.a{fill:#fff;}.b{fill:#c3d3dc;}.c{fill:#48b5cd;}.d{fill:#004379;}</style></defs><title>bug-contained</title><path class="a" d="M111.53,100,60.26,129.58a6,6,0,0,1-6,0L3,100a6,6,0,0,1-3-5.2V35.6a6,6,0,0,1,3-5.2L54.26.8a6,6,0,0,1,6,0l51.27,29.6a6,6,0,0,1,3,5.2V94.79A6,6,0,0,1,111.53,100Z"/><path class="b" d="M59.94,17a4.8,4.8,0,0,0-4.8,8.32l35.5,20.55v41a4.8,4.8,0,0,0,9.59,0V40.33Z"/><path class="c" d="M34.39,29.69a4.77,4.77,0,0,0,1.72,6.53l0,0,35.5,20.57v41a4.82,4.82,0,0,0,9.61,0V51.27L40.88,27.94A4.82,4.82,0,0,0,34.39,29.69Z"/><path class="d" d="M15.33,40.71A4.58,4.58,0,0,0,14.69,43V86.87a4.84,4.84,0,1,0,9.67,0V51.47l9.3,5.4v41a4.8,4.8,0,1,0,9.59,0V62.43l9.39,5.44v40.94a4.82,4.82,0,0,0,9.61,0V62.33L22,39a4.83,4.83,0,0,0-6.6,1.7Z"/></svg>