<svg class="railroad-diagram" height="452" viewbox="0 0 157 452" width="157" xmlns="http://www.w3.org/2000/svg">
 <g transform="translate(.5 .5)">
  <g>
   <path d="M20 21v20m10 -20v20m-10 -10h20">
   </path>
  </g>
  <g>
   <path d="M40 31h0">
   </path>
   <path d="M117 31h0">
   </path>
   <path d="M40 31h20">
   </path>
   <g class="terminal">
    <path d="M60 31h4.25">
    </path>
    <path d="M92.75 31h4.25">
    </path>
    <rect height="22" rx="10" ry="10" width="28.5" x="64.25" y="20">
    </rect>
    <text x="78.5" y="35">
     =
    </text>
   </g>
   <path d="M97 31h20">
   </path>
   <path d="M40 31a10 10 0 0 1 10 10v10a10 10 0 0 0 10 10">
   </path>
   <g class="terminal">
    <path d="M60 61h0">
    </path>
    <path d="M97 61h0">
    </path>
    <rect height="22" rx="10" ry="10" width="37" x="60" y="50">
    </rect>
    <text x="78.5" y="65">
     !=
    </text>
   </g>
   <path d="M97 61a10 10 0 0 0 10 -10v-10a10 10 0 0 1 10 -10">
   </path>
   <path d="M40 31a10 10 0 0 1 10 10v40a10 10 0 0 0 10 10">
   </path>
   <g class="terminal">
    <path d="M60 91h0">
    </path>
    <path d="M97 91h0">
    </path>
    <rect height="22" rx="10" ry="10" width="37" x="60" y="80">
    </rect>
    <text x="78.5" y="95">
     &lt;=
    </text>
   </g>
   <path d="M97 91a10 10 0 0 0 10 -10v-40a10 10 0 0 1 10 -10">
   </path>
   <path d="M40 31a10 10 0 0 1 10 10v70a10 10 0 0 0 10 10">
   </path>
   <g class="terminal">
    <path d="M60 121h0">
    </path>
    <path d="M97 121h0">
    </path>
    <rect height="22" rx="10" ry="10" width="37" x="60" y="110">
    </rect>
    <text x="78.5" y="125">
     &gt;=
    </text>
   </g>
   <path d="M97 121a10 10 0 0 0 10 -10v-70a10 10 0 0 1 10 -10">
   </path>
   <path d="M40 31a10 10 0 0 1 10 10v100a10 10 0 0 0 10 10">
   </path>
   <g class="terminal">
    <path d="M60 151h4.25">
    </path>
    <path d="M92.75 151h4.25">
    </path>
    <rect height="22" rx="10" ry="10" width="28.5" x="64.25" y="140">
    </rect>
    <text x="78.5" y="155">
     &amp;
    </text>
   </g>
   <path d="M97 151a10 10 0 0 0 10 -10v-100a10 10 0 0 1 10 -10">
   </path>
   <path d="M40 31a10 10 0 0 1 10 10v130a10 10 0 0 0 10 10">
   </path>
   <g class="terminal">
    <path d="M60 181h4.25">
    </path>
    <path d="M92.75 181h4.25">
    </path>
    <rect height="22" rx="10" ry="10" width="28.5" x="64.25" y="170">
    </rect>
    <text x="78.5" y="185">
     |
    </text>
   </g>
   <path d="M97 181a10 10 0 0 0 10 -10v-130a10 10 0 0 1 10 -10">
   </path>
   <path d="M40 31a10 10 0 0 1 10 10v160a10 10 0 0 0 10 10">
   </path>
   <g class="terminal">
    <path d="M60 211h0">
    </path>
    <path d="M97 211h0">
    </path>
    <rect height="22" rx="10" ry="10" width="37" x="60" y="200">
    </rect>
    <text x="78.5" y="215">
     &lt;&lt;
    </text>
   </g>
   <path d="M97 211a10 10 0 0 0 10 -10v-160a10 10 0 0 1 10 -10">
   </path>
   <path d="M40 31a10 10 0 0 1 10 10v190a10 10 0 0 0 10 10">
   </path>
   <g class="terminal">
    <path d="M60 241h0">
    </path>
    <path d="M97 241h0">
    </path>
    <rect height="22" rx="10" ry="10" width="37" x="60" y="230">
    </rect>
    <text x="78.5" y="245">
     &gt;&gt;
    </text>
   </g>
   <path d="M97 241a10 10 0 0 0 10 -10v-190a10 10 0 0 1 10 -10">
   </path>
   <path d="M40 31a10 10 0 0 1 10 10v220a10 10 0 0 0 10 10">
   </path>
   <g class="terminal">
    <path d="M60 271h4.25">
    </path>
    <path d="M92.75 271h4.25">
    </path>
    <rect height="22" rx="10" ry="10" width="28.5" x="64.25" y="260">
    </rect>
    <text x="78.5" y="275">
     +
    </text>
   </g>
   <path d="M97 271a10 10 0 0 0 10 -10v-220a10 10 0 0 1 10 -10">
   </path>
   <path d="M40 31a10 10 0 0 1 10 10v250a10 10 0 0 0 10 10">
   </path>
   <g class="terminal">
    <path d="M60 301h4.25">
    </path>
    <path d="M92.75 301h4.25">
    </path>
    <rect height="22" rx="10" ry="10" width="28.5" x="64.25" y="290">
    </rect>
    <text x="78.5" y="305">
     -
    </text>
   </g>
   <path d="M97 301a10 10 0 0 0 10 -10v-250a10 10 0 0 1 10 -10">
   </path>
   <path d="M40 31a10 10 0 0 1 10 10v280a10 10 0 0 0 10 10">
   </path>
   <g class="terminal">
    <path d="M60 331h4.25">
    </path>
    <path d="M92.75 331h4.25">
    </path>
    <rect height="22" rx="10" ry="10" width="28.5" x="64.25" y="320">
    </rect>
    <text x="78.5" y="335">
     *
    </text>
   </g>
   <path d="M97 331a10 10 0 0 0 10 -10v-280a10 10 0 0 1 10 -10">
   </path>
   <path d="M40 31a10 10 0 0 1 10 10v310a10 10 0 0 0 10 10">
   </path>
   <g class="terminal">
    <path d="M60 361h4.25">
    </path>
    <path d="M92.75 361h4.25">
    </path>
    <rect height="22" rx="10" ry="10" width="28.5" x="64.25" y="350">
    </rect>
    <text x="78.5" y="365">
     /
    </text>
   </g>
   <path d="M97 361a10 10 0 0 0 10 -10v-310a10 10 0 0 1 10 -10">
   </path>
   <path d="M40 31a10 10 0 0 1 10 10v340a10 10 0 0 0 10 10">
   </path>
   <g class="terminal">
    <path d="M60 391h4.25">
    </path>
    <path d="M92.75 391h4.25">
    </path>
    <rect height="22" rx="10" ry="10" width="28.5" x="64.25" y="380">
    </rect>
    <text x="78.5" y="395">
     %
    </text>
   </g>
   <path d="M97 391a10 10 0 0 0 10 -10v-340a10 10 0 0 1 10 -10">
   </path>
   <path d="M40 31a10 10 0 0 1 10 10v370a10 10 0 0 0 10 10">
   </path>
   <g class="terminal">
    <path d="M60 421h0">
    </path>
    <path d="M97 421h0">
    </path>
    <rect height="22" rx="10" ry="10" width="37" x="60" y="410">
    </rect>
    <text x="78.5" y="425">
     ||
    </text>
   </g>
   <path d="M97 421a10 10 0 0 0 10 -10v-370a10 10 0 0 1 10 -10">
   </path>
  </g>
  <path d="M 117 31 h 20 m -10 -10 v 20 m 10 -20 v 20">
  </path>
 </g>
 <style>
  svg {
    width: 100%;
}

path {
    stroke-width: 3;
    stroke: black;
    fill: rgba(0,0,0,0);
}
text {
    font: bold 14px monospace;
    text-anchor: middle;
    fill: black;
}
text.diagram-text {
    font-size: 12px;
}
text.diagram-arrow {
    font-size: 16px;
}
text.label {
    text-anchor: start;
}
text.comment {
    font: italic 12px monospace;
}
g.special-sequence rect {
    fill: #ffe79a;
    stroke: black;
}
g.special-sequence text {
    font-style: italic;
}
rect {
    stroke-width: 3;
}
rect.group-box {
    stroke: gray;
    stroke-dasharray: 10 5;
    fill: none;
}
g.non-terminal rect {
    fill: #feffdf;
    stroke: black;
}
g.terminal rect {
    fill: #feffdf;
    stroke: black;
}
path.diagram-text {
    stroke-width: 3;
    stroke: black;
    fill: white;
    cursor: help;
}
g.diagram-text:hover path.diagram-text {
    fill: #eee;
}
 </style>
</svg>
