<svg class="railroad-diagram" height="80" viewbox="0 0 532.5 80" width="532.5" xmlns="http://www.w3.org/2000/svg">
 <g transform="translate(.5 .5)">
  <g>
   <path d="M20 30v20m0 -10h20">
   </path>
  </g>
  <path d="M40 40h10">
  </path>
  <g>
   <path d="M50 40h0">
   </path>
   <path d="M482.5 40h0">
   </path>
   <g class="terminal">
    <path d="M50 40h0">
    </path>
    <path d="M78.5 40h0">
    </path>
    <rect height="22" rx="10" ry="10" width="28.5" x="50" y="29">
    </rect>
    <text x="64.25" y="44">
     (
    </text>
   </g>
   <path d="M78.5 40h10">
   </path>
   <path d="M88.5 40h10">
   </path>
   <g class="non-terminal">
    <path d="M98.5 40h0">
    </path>
    <path d="M212 40h0">
    </path>
    <rect height="22" width="113.5" x="98.5" y="29">
    </rect>
    <a>
     <text x="155.25" y="44">
      column_name
     </text>
    </a>
   </g>
   <path d="M212 40h10">
   </path>
   <g>
    <path d="M222 40h0">
    </path>
    <path d="M444 40h0">
    </path>
    <path d="M222 40a10 10 0 0 0 10 -10v0a10 10 0 0 1 10 -10">
    </path>
    <g>
     <path d="M242 20h182">
     </path>
    </g>
    <path d="M424 20a10 10 0 0 1 10 10v0a10 10 0 0 0 10 10">
    </path>
    <path d="M222 40h20">
    </path>
    <g>
     <path d="M242 40h0">
     </path>
     <path d="M424 40h0">
     </path>
     <path d="M242 40h10">
     </path>
     <g>
      <path d="M252 40h0">
      </path>
      <path d="M414 40h0">
      </path>
      <g class="terminal">
       <path d="M252 40h0">
       </path>
       <path d="M280.5 40h0">
       </path>
       <rect height="22" rx="10" ry="10" width="28.5" x="252" y="29">
       </rect>
       <text x="266.25" y="44">
        ,
       </text>
      </g>
      <path d="M280.5 40h10">
      </path>
      <path d="M290.5 40h10">
      </path>
      <g class="non-terminal">
       <path d="M300.5 40h0">
       </path>
       <path d="M414 40h0">
       </path>
       <rect height="22" width="113.5" x="300.5" y="29">
       </rect>
       <a>
        <text x="357.25" y="44">
         column_name
        </text>
       </a>
      </g>
     </g>
     <path d="M414 40h10">
     </path>
     <path d="M252 40a10 10 0 0 0 -10 10v0a10 10 0 0 0 10 10">
     </path>
     <g>
      <path d="M252 60h162">
      </path>
     </g>
     <path d="M414 60a10 10 0 0 0 10 -10v0a10 10 0 0 0 -10 -10">
     </path>
    </g>
    <path d="M424 40h20">
    </path>
   </g>
   <path d="M444 40h10">
   </path>
   <g class="terminal">
    <path d="M454 40h0">
    </path>
    <path d="M482.5 40h0">
    </path>
    <rect height="22" rx="10" ry="10" width="28.5" x="454" y="29">
    </rect>
    <text x="468.25" y="44">
     )
    </text>
   </g>
  </g>
  <path d="M482.5 40h10">
  </path>
  <path d="M 492.5 40 h 20 m 0 -10 v 20">
  </path>
 </g>
 <style>
  svg {
    width: 100%;
}

path {
    stroke-width: 3;
    stroke: black;
    fill: rgba(0,0,0,0);
}
text {
    font: bold 14px monospace;
    text-anchor: middle;
    fill: black;
}
text.diagram-text {
    font-size: 12px;
}
text.diagram-arrow {
    font-size: 16px;
}
text.label {
    text-anchor: start;
}
text.comment {
    font: italic 12px monospace;
}
g.special-sequence rect {
    fill: #ffe79a;
    stroke: black;
}
g.special-sequence text {
    font-style: italic;
}
rect {
    stroke-width: 3;
}
rect.group-box {
    stroke: gray;
    stroke-dasharray: 10 5;
    fill: none;
}
g.non-terminal rect {
    fill: #feffdf;
    stroke: black;
}
g.terminal rect {
    fill: #feffdf;
    stroke: black;
}
path.diagram-text {
    stroke-width: 3;
    stroke: black;
    fill: white;
    cursor: help;
}
g.diagram-text:hover path.diagram-text {
    fill: #eee;
}
 </style>
</svg>
