<svg class="railroad-diagram" height="665" viewbox="0 0 680 665" width="680" xmlns="http://www.w3.org/2000/svg">
 <g transform="translate(.5 .5)">
  <g>
   <path d="M20 21v20m0 -10h20">
   </path>
  </g>
  <g>
   <path d="M40 31h0">
   </path>
   <path d="M640 31h0">
   </path>
   <path d="M40 31h20">
   </path>
   <g class="non-terminal">
    <path d="M60 31h206.25">
    </path>
    <path d="M413.75 31h206.25">
    </path>
    <rect height="22" width="147.5" x="266.25" y="20">
    </rect>
    <a>
     <text x="340" y="35">
      integer_literal
     </text>
    </a>
   </g>
   <path d="M620 31h20">
   </path>
   <path d="M40 31a10 10 0 0 1 10 10v10a10 10 0 0 0 10 10">
   </path>
   <g class="non-terminal">
    <path d="M60 61h210.5">
    </path>
    <path d="M409.5 61h210.5">
    </path>
    <rect height="22" width="139" x="270.5" y="50">
    </rect>
    <a>
     <text x="340" y="65">
      string_literal
     </text>
    </a>
   </g>
   <path d="M620 61a10 10 0 0 0 10 -10v-10a10 10 0 0 1 10 -10">
   </path>
   <path d="M40 31a10 10 0 0 1 10 10v40a10 10 0 0 0 10 10">
   </path>
   <g class="non-terminal">
    <path d="M60 91h206.25">
    </path>
    <path d="M413.75 91h206.25">
    </path>
    <rect height="22" width="147.5" x="266.25" y="80">
    </rect>
    <a>
     <text x="340" y="95">
      decimal_literal
     </text>
    </a>
   </g>
   <path d="M620 91a10 10 0 0 0 10 -10v-40a10 10 0 0 1 10 -10">
   </path>
   <path d="M40 31a10 10 0 0 1 10 10v70a10 10 0 0 0 10 10">
   </path>
   <g class="non-terminal">
    <path d="M60 121h223.25">
    </path>
    <path d="M396.75 121h223.25">
    </path>
    <rect height="22" width="113.5" x="283.25" y="110">
    </rect>
    <a>
     <text x="340" y="125">
      set_literal
     </text>
    </a>
   </g>
   <path d="M620 121a10 10 0 0 0 10 -10v-70a10 10 0 0 1 10 -10">
   </path>
   <path d="M40 31a10 10 0 0 1 10 10v100a10 10 0 0 0 10 10">
   </path>
   <g class="non-terminal">
    <path d="M60 151h214.75">
    </path>
    <path d="M405.25 151h214.75">
    </path>
    <rect height="22" width="130.5" x="274.75" y="140">
    </rect>
    <a>
     <text x="340" y="155">
      tuple_literal
     </text>
    </a>
   </g>
   <path d="M620 151a10 10 0 0 0 10 -10v-100a10 10 0 0 1 10 -10">
   </path>
   <path d="M40 31a10 10 0 0 1 10 10v130a10 10 0 0 0 10 10">
   </path>
   <g class="non-terminal">
    <path d="M60 181h219">
    </path>
    <path d="M401 181h219">
    </path>
    <rect height="22" width="122" x="279" y="170">
    </rect>
    <a>
     <text x="340" y="185">
      date_literal
     </text>
    </a>
   </g>
   <path d="M620 181a10 10 0 0 0 10 -10v-130a10 10 0 0 1 10 -10">
   </path>
   <path d="M40 31a10 10 0 0 1 10 10v169a10 10 0 0 0 10 10">
   </path>
   <g>
    <path d="M60 220h121.5">
    </path>
    <path d="M498.5 220h121.5">
    </path>
    <g>
     <path d="M181.5 220h0">
     </path>
     <path d="M375 220h0">
     </path>
     <path d="M181.5 220a10 10 0 0 0 10 -10v0a10 10 0 0 1 10 -10">
     </path>
     <g>
      <path d="M201.5 200h153.5">
      </path>
     </g>
     <path d="M355 200a10 10 0 0 1 10 10v0a10 10 0 0 0 10 10">
     </path>
     <path d="M181.5 220h20">
     </path>
     <g>
      <path d="M201.5 220h0">
      </path>
      <path d="M355 220h0">
      </path>
      <g class="non-terminal">
       <path d="M201.5 220h0">
       </path>
       <path d="M306.5 220h0">
       </path>
       <rect height="22" width="105" x="201.5" y="209">
       </rect>
       <a>
        <text x="254" y="224">
         table_name
        </text>
       </a>
      </g>
      <path d="M306.5 220h10">
      </path>
      <path d="M316.5 220h10">
      </path>
      <g class="terminal">
       <path d="M326.5 220h0">
       </path>
       <path d="M355 220h0">
       </path>
       <rect height="22" rx="10" ry="10" width="28.5" x="326.5" y="209">
       </rect>
       <text x="340.75" y="224">
        .
       </text>
      </g>
     </g>
     <path d="M355 220h20">
     </path>
    </g>
    <path d="M375 220h10">
    </path>
    <g class="non-terminal">
     <path d="M385 220h0">
     </path>
     <path d="M498.5 220h0">
     </path>
     <rect height="22" width="113.5" x="385" y="209">
     </rect>
     <a>
      <text x="441.75" y="224">
       column_name
      </text>
     </a>
    </g>
   </g>
   <path d="M620 220a10 10 0 0 0 10 -10v-169a10 10 0 0 1 10 -10">
   </path>
   <path d="M40 31a10 10 0 0 1 10 10v199a10 10 0 0 0 10 10">
   </path>
   <g>
    <path d="M60 250h199">
    </path>
    <path d="M421 250h199">
    </path>
    <g class="non-terminal">
     <path d="M259 250h0">
     </path>
     <path d="M347 250h0">
     </path>
     <rect height="22" width="88" x="259" y="239">
     </rect>
     <a>
      <text x="303" y="254">
       unary_op
      </text>
     </a>
    </g>
    <path d="M347 250h10">
    </path>
    <path d="M357 250h10">
    </path>
    <g class="non-terminal">
     <path d="M367 250h0">
     </path>
     <path d="M421 250h0">
     </path>
     <rect height="22" width="54" x="367" y="239">
     </rect>
     <a>
      <text x="394" y="254">
       expr
      </text>
     </a>
    </g>
   </g>
   <path d="M620 250a10 10 0 0 0 10 -10v-199a10 10 0 0 1 10 -10">
   </path>
   <path d="M40 31a10 10 0 0 1 10 10v229a10 10 0 0 0 10 10">
   </path>
   <g>
    <path d="M60 280h157.75">
    </path>
    <path d="M462.25 280h157.75">
    </path>
    <g class="non-terminal">
     <path d="M217.75 280h0">
     </path>
     <path d="M271.75 280h0">
     </path>
     <rect height="22" width="54" x="217.75" y="269">
     </rect>
     <a>
      <text x="244.75" y="284">
       expr
      </text>
     </a>
    </g>
    <path d="M271.75 280h10">
    </path>
    <path d="M281.75 280h10">
    </path>
    <g class="non-terminal">
     <path d="M291.75 280h0">
     </path>
     <path d="M388.25 280h0">
     </path>
     <rect height="22" width="96.5" x="291.75" y="269">
     </rect>
     <a>
      <text x="340" y="284">
       binary_op
      </text>
     </a>
    </g>
    <path d="M388.25 280h10">
    </path>
    <path d="M398.25 280h10">
    </path>
    <g class="non-terminal">
     <path d="M408.25 280h0">
     </path>
     <path d="M462.25 280h0">
     </path>
     <rect height="22" width="54" x="408.25" y="269">
     </rect>
     <a>
      <text x="435.25" y="284">
       expr
      </text>
     </a>
    </g>
   </g>
   <path d="M620 280a10 10 0 0 0 10 -10v-229a10 10 0 0 1 10 -10">
   </path>
   <path d="M40 31a10 10 0 0 1 10 10v259a10 10 0 0 0 10 10">
   </path>
   <g class="non-terminal">
    <path d="M60 310h214.75">
    </path>
    <path d="M405.25 310h214.75">
    </path>
    <rect height="22" width="130.5" x="274.75" y="299">
    </rect>
    <a>
     <text x="340" y="314">
      function_call
     </text>
    </a>
   </g>
   <path d="M620 310a10 10 0 0 0 10 -10v-259a10 10 0 0 1 10 -10">
   </path>
   <path d="M40 31a10 10 0 0 1 10 10v289a10 10 0 0 0 10 10">
   </path>
   <g>
    <path d="M60 340h204.5">
    </path>
    <path d="M415.5 340h204.5">
    </path>
    <g class="terminal">
     <path d="M264.5 340h0">
     </path>
     <path d="M293 340h0">
     </path>
     <rect height="22" rx="10" ry="10" width="28.5" x="264.5" y="329">
     </rect>
     <text x="278.75" y="344">
      (
     </text>
    </g>
    <path d="M293 340h10">
    </path>
    <path d="M303 340h10">
    </path>
    <g class="non-terminal">
     <path d="M313 340h0">
     </path>
     <path d="M367 340h0">
     </path>
     <rect height="22" width="54" x="313" y="329">
     </rect>
     <a>
      <text x="340" y="344">
       expr
      </text>
     </a>
    </g>
    <path d="M367 340h10">
    </path>
    <path d="M377 340h10">
    </path>
    <g class="terminal">
     <path d="M387 340h0">
     </path>
     <path d="M415.5 340h0">
     </path>
     <rect height="22" rx="10" ry="10" width="28.5" x="387" y="329">
     </rect>
     <text x="401.25" y="344">
      )
     </text>
    </g>
   </g>
   <path d="M620 340a10 10 0 0 0 10 -10v-289a10 10 0 0 1 10 -10">
   </path>
   <path d="M40 31a10 10 0 0 1 10 10v319a10 10 0 0 0 10 10">
   </path>
   <g>
    <path d="M60 370h80.75">
    </path>
    <path d="M539.25 370h80.75">
    </path>
    <g class="terminal">
     <path d="M140.75 370h0">
     </path>
     <path d="M194.75 370h0">
     </path>
     <rect height="22" rx="10" ry="10" width="54" x="140.75" y="359">
     </rect>
     <text x="167.75" y="374">
      CAST
     </text>
    </g>
    <path d="M194.75 370h10">
    </path>
    <path d="M204.75 370h10">
    </path>
    <g class="terminal">
     <path d="M214.75 370h0">
     </path>
     <path d="M243.25 370h0">
     </path>
     <rect height="22" rx="10" ry="10" width="28.5" x="214.75" y="359">
     </rect>
     <text x="229" y="374">
      (
     </text>
    </g>
    <path d="M243.25 370h10">
    </path>
    <path d="M253.25 370h10">
    </path>
    <g class="non-terminal">
     <path d="M263.25 370h0">
     </path>
     <path d="M317.25 370h0">
     </path>
     <rect height="22" width="54" x="263.25" y="359">
     </rect>
     <a>
      <text x="290.25" y="374">
       expr
      </text>
     </a>
    </g>
    <path d="M317.25 370h10">
    </path>
    <path d="M327.25 370h10">
    </path>
    <g class="terminal">
     <path d="M337.25 370h0">
     </path>
     <path d="M374.25 370h0">
     </path>
     <rect height="22" rx="10" ry="10" width="37" x="337.25" y="359">
     </rect>
     <text x="355.75" y="374">
      AS
     </text>
    </g>
    <path d="M374.25 370h10">
    </path>
    <path d="M384.25 370h10">
    </path>
    <g class="non-terminal">
     <path d="M394.25 370h0">
     </path>
     <path d="M490.75 370h0">
     </path>
     <rect height="22" width="96.5" x="394.25" y="359">
     </rect>
     <a>
      <text x="442.5" y="374">
       type_name
      </text>
     </a>
    </g>
    <path d="M490.75 370h10">
    </path>
    <path d="M500.75 370h10">
    </path>
    <g class="terminal">
     <path d="M510.75 370h0">
     </path>
     <path d="M539.25 370h0">
     </path>
     <rect height="22" rx="10" ry="10" width="28.5" x="510.75" y="359">
     </rect>
     <text x="525" y="374">
      )
     </text>
    </g>
   </g>
   <path d="M620 370a10 10 0 0 0 10 -10v-319a10 10 0 0 1 10 -10">
   </path>
   <path d="M40 31a10 10 0 0 1 10 10v358a10 10 0 0 0 10 10">
   </path>
   <g>
    <path d="M60 409h136.25">
    </path>
    <path d="M483.75 409h136.25">
    </path>
    <g class="non-terminal">
     <path d="M196.25 409h0">
     </path>
     <path d="M250.25 409h0">
     </path>
     <rect height="22" width="54" x="196.25" y="398">
     </rect>
     <a>
      <text x="223.25" y="413">
       expr
      </text>
     </a>
    </g>
    <path d="M250.25 409h10">
    </path>
    <g>
     <path d="M260.25 409h0">
     </path>
     <path d="M345.75 409h0">
     </path>
     <path d="M260.25 409a10 10 0 0 0 10 -10v0a10 10 0 0 1 10 -10">
     </path>
     <g>
      <path d="M280.25 389h45.5">
      </path>
     </g>
     <path d="M325.75 389a10 10 0 0 1 10 10v0a10 10 0 0 0 10 10">
     </path>
     <path d="M260.25 409h20">
     </path>
     <g class="terminal">
      <path d="M280.25 409h0">
      </path>
      <path d="M325.75 409h0">
      </path>
      <rect height="22" rx="10" ry="10" width="45.5" x="280.25" y="398">
      </rect>
      <text x="303" y="413">
       NOT
      </text>
     </g>
     <path d="M325.75 409h20">
     </path>
    </g>
    <path d="M345.75 409h10">
    </path>
    <g class="terminal">
     <path d="M355.75 409h0">
     </path>
     <path d="M409.75 409h0">
     </path>
     <rect height="22" rx="10" ry="10" width="54" x="355.75" y="398">
     </rect>
     <text x="382.75" y="413">
      LIKE
     </text>
    </g>
    <path d="M409.75 409h10">
    </path>
    <path d="M419.75 409h10">
    </path>
    <g class="non-terminal">
     <path d="M429.75 409h0">
     </path>
     <path d="M483.75 409h0">
     </path>
     <rect height="22" width="54" x="429.75" y="398">
     </rect>
     <a>
      <text x="456.75" y="413">
       expr
      </text>
     </a>
    </g>
   </g>
   <path d="M620 409a10 10 0 0 0 10 -10v-358a10 10 0 0 1 10 -10">
   </path>
   <path d="M40 31a10 10 0 0 1 10 10v397a10 10 0 0 0 10 10">
   </path>
   <g>
    <path d="M60 448h144.75">
    </path>
    <path d="M475.25 448h144.75">
    </path>
    <g class="non-terminal">
     <path d="M204.75 448h0">
     </path>
     <path d="M258.75 448h0">
     </path>
     <rect height="22" width="54" x="204.75" y="437">
     </rect>
     <a>
      <text x="231.75" y="452">
       expr
      </text>
     </a>
    </g>
    <path d="M258.75 448h10">
    </path>
    <path d="M268.75 448h10">
    </path>
    <g class="terminal">
     <path d="M278.75 448h0">
     </path>
     <path d="M315.75 448h0">
     </path>
     <rect height="22" rx="10" ry="10" width="37" x="278.75" y="437">
     </rect>
     <text x="297.25" y="452">
      IS
     </text>
    </g>
    <path d="M315.75 448h10">
    </path>
    <g>
     <path d="M325.75 448h0">
     </path>
     <path d="M411.25 448h0">
     </path>
     <path d="M325.75 448a10 10 0 0 0 10 -10v0a10 10 0 0 1 10 -10">
     </path>
     <g>
      <path d="M345.75 428h45.5">
      </path>
     </g>
     <path d="M391.25 428a10 10 0 0 1 10 10v0a10 10 0 0 0 10 10">
     </path>
     <path d="M325.75 448h20">
     </path>
     <g class="terminal">
      <path d="M345.75 448h0">
      </path>
      <path d="M391.25 448h0">
      </path>
      <rect height="22" rx="10" ry="10" width="45.5" x="345.75" y="437">
      </rect>
      <text x="368.5" y="452">
       NOT
      </text>
     </g>
     <path d="M391.25 448h20">
     </path>
    </g>
    <path d="M411.25 448h10">
    </path>
    <g class="terminal">
     <path d="M421.25 448h0">
     </path>
     <path d="M475.25 448h0">
     </path>
     <rect height="22" rx="10" ry="10" width="54" x="421.25" y="437">
     </rect>
     <text x="448.25" y="452">
      NULL
     </text>
    </g>
   </g>
   <path d="M620 448a10 10 0 0 0 10 -10v-397a10 10 0 0 1 10 -10">
   </path>
   <path d="M40 31a10 10 0 0 1 10 10v436a10 10 0 0 0 10 10">
   </path>
   <g>
    <path d="M60 487h53.75">
    </path>
    <path d="M566.25 487h53.75">
    </path>
    <g class="non-terminal">
     <path d="M113.75 487h0">
     </path>
     <path d="M167.75 487h0">
     </path>
     <rect height="22" width="54" x="113.75" y="476">
     </rect>
     <a>
      <text x="140.75" y="491">
       expr
      </text>
     </a>
    </g>
    <path d="M167.75 487h10">
    </path>
    <g>
     <path d="M177.75 487h0">
     </path>
     <path d="M263.25 487h0">
     </path>
     <path d="M177.75 487a10 10 0 0 0 10 -10v0a10 10 0 0 1 10 -10">
     </path>
     <g>
      <path d="M197.75 467h45.5">
      </path>
     </g>
     <path d="M243.25 467a10 10 0 0 1 10 10v0a10 10 0 0 0 10 10">
     </path>
     <path d="M177.75 487h20">
     </path>
     <g class="terminal">
      <path d="M197.75 487h0">
      </path>
      <path d="M243.25 487h0">
      </path>
      <rect height="22" rx="10" ry="10" width="45.5" x="197.75" y="476">
      </rect>
      <text x="220.5" y="491">
       NOT
      </text>
     </g>
     <path d="M243.25 487h20">
     </path>
    </g>
    <path d="M263.25 487h10">
    </path>
    <g class="terminal">
     <path d="M273.25 487h0">
     </path>
     <path d="M352.75 487h0">
     </path>
     <rect height="22" rx="10" ry="10" width="79.5" x="273.25" y="476">
     </rect>
     <text x="313" y="491">
      BETWEEN
     </text>
    </g>
    <path d="M352.75 487h10">
    </path>
    <path d="M362.75 487h10">
    </path>
    <g class="non-terminal">
     <path d="M372.75 487h0">
     </path>
     <path d="M426.75 487h0">
     </path>
     <rect height="22" width="54" x="372.75" y="476">
     </rect>
     <a>
      <text x="399.75" y="491">
       expr
      </text>
     </a>
    </g>
    <path d="M426.75 487h10">
    </path>
    <path d="M436.75 487h10">
    </path>
    <g class="terminal">
     <path d="M446.75 487h0">
     </path>
     <path d="M492.25 487h0">
     </path>
     <rect height="22" rx="10" ry="10" width="45.5" x="446.75" y="476">
     </rect>
     <text x="469.5" y="491">
      AND
     </text>
    </g>
    <path d="M492.25 487h10">
    </path>
    <path d="M502.25 487h10">
    </path>
    <g class="non-terminal">
     <path d="M512.25 487h0">
     </path>
     <path d="M566.25 487h0">
     </path>
     <rect height="22" width="54" x="512.25" y="476">
     </rect>
     <a>
      <text x="539.25" y="491">
       expr
      </text>
     </a>
    </g>
   </g>
   <path d="M620 487a10 10 0 0 0 10 -10v-436a10 10 0 0 1 10 -10">
   </path>
   <path d="M40 31a10 10 0 0 1 10 10v475a10 10 0 0 0 10 10">
   </path>
   <g>
    <path d="M60 526h0">
    </path>
    <path d="M620 526h0">
    </path>
    <g class="non-terminal">
     <path d="M60 526h0">
     </path>
     <path d="M114 526h0">
     </path>
     <rect height="22" width="54" x="60" y="515">
     </rect>
     <a>
      <text x="87" y="530">
       expr
      </text>
     </a>
    </g>
    <path d="M114 526h10">
    </path>
    <g>
     <path d="M124 526h0">
     </path>
     <path d="M209.5 526h0">
     </path>
     <path d="M124 526a10 10 0 0 0 10 -10v0a10 10 0 0 1 10 -10">
     </path>
     <g>
      <path d="M144 506h45.5">
      </path>
     </g>
     <path d="M189.5 506a10 10 0 0 1 10 10v0a10 10 0 0 0 10 10">
     </path>
     <path d="M124 526h20">
     </path>
     <g class="terminal">
      <path d="M144 526h0">
      </path>
      <path d="M189.5 526h0">
      </path>
      <rect height="22" rx="10" ry="10" width="45.5" x="144" y="515">
      </rect>
      <text x="166.75" y="530">
       NOT
      </text>
     </g>
     <path d="M189.5 526h20">
     </path>
    </g>
    <path d="M209.5 526h10">
    </path>
    <g class="terminal">
     <path d="M219.5 526h0">
     </path>
     <path d="M256.5 526h0">
     </path>
     <rect height="22" rx="10" ry="10" width="37" x="219.5" y="515">
     </rect>
     <text x="238" y="530">
      IN
     </text>
    </g>
    <path d="M256.5 526h10">
    </path>
    <path d="M266.5 526h10">
    </path>
    <g class="terminal">
     <path d="M276.5 526h0">
     </path>
     <path d="M305 526h0">
     </path>
     <rect height="22" rx="10" ry="10" width="28.5" x="276.5" y="515">
     </rect>
     <text x="290.75" y="530">
      (
     </text>
    </g>
    <path d="M305 526h10">
    </path>
    <g>
     <path d="M315 526h0">
     </path>
     <path d="M581.5 526h0">
     </path>
     <path d="M315 526h20">
     </path>
     <g class="non-terminal">
      <path d="M335 526h56.5">
      </path>
      <path d="M505 526h56.5">
      </path>
      <rect height="22" width="113.5" x="391.5" y="515">
      </rect>
      <a>
       <text x="448.25" y="530">
        select_stmt
       </text>
      </a>
     </g>
     <path d="M561.5 526h20">
     </path>
     <path d="M315 526a10 10 0 0 1 10 10v19a10 10 0 0 0 10 10">
     </path>
     <g>
      <path d="M335 565h0">
      </path>
      <path d="M561.5 565h0">
      </path>
      <g class="non-terminal">
       <path d="M335 565h0">
       </path>
       <path d="M389 565h0">
       </path>
       <rect height="22" width="54" x="335" y="554">
       </rect>
       <a>
        <text x="362" y="569">
         expr
        </text>
       </a>
      </g>
      <path d="M389 565h10">
      </path>
      <g>
       <path d="M399 565h0">
       </path>
       <path d="M561.5 565h0">
       </path>
       <path d="M399 565a10 10 0 0 0 10 -10v0a10 10 0 0 1 10 -10">
       </path>
       <g>
        <path d="M419 545h122.5">
        </path>
       </g>
       <path d="M541.5 545a10 10 0 0 1 10 10v0a10 10 0 0 0 10 10">
       </path>
       <path d="M399 565h20">
       </path>
       <g>
        <path d="M419 565h0">
        </path>
        <path d="M541.5 565h0">
        </path>
        <path d="M419 565h10">
        </path>
        <g>
         <path d="M429 565h0">
         </path>
         <path d="M531.5 565h0">
         </path>
         <g class="terminal">
          <path d="M429 565h0">
          </path>
          <path d="M457.5 565h0">
          </path>
          <rect height="22" rx="10" ry="10" width="28.5" x="429" y="554">
          </rect>
          <text x="443.25" y="569">
           ,
          </text>
         </g>
         <path d="M457.5 565h10">
         </path>
         <path d="M467.5 565h10">
         </path>
         <g class="non-terminal">
          <path d="M477.5 565h0">
          </path>
          <path d="M531.5 565h0">
          </path>
          <rect height="22" width="54" x="477.5" y="554">
          </rect>
          <a>
           <text x="504.5" y="569">
            expr
           </text>
          </a>
         </g>
        </g>
        <path d="M531.5 565h10">
        </path>
        <path d="M429 565a10 10 0 0 0 -10 10v0a10 10 0 0 0 10 10">
        </path>
        <g>
         <path d="M429 585h102.5">
         </path>
        </g>
        <path d="M531.5 585a10 10 0 0 0 10 -10v0a10 10 0 0 0 -10 -10">
        </path>
       </g>
       <path d="M541.5 565h20">
       </path>
      </g>
     </g>
     <path d="M561.5 565a10 10 0 0 0 10 -10v-19a10 10 0 0 1 10 -10">
     </path>
    </g>
    <path d="M581.5 526h10">
    </path>
    <g class="terminal">
     <path d="M591.5 526h0">
     </path>
     <path d="M620 526h0">
     </path>
     <rect height="22" rx="10" ry="10" width="28.5" x="591.5" y="515">
     </rect>
     <text x="605.75" y="530">
      )
     </text>
    </g>
   </g>
   <path d="M620 526a10 10 0 0 0 10 -10v-475a10 10 0 0 1 10 -10">
   </path>
   <path d="M40 31a10 10 0 0 1 10 10v553a10 10 0 0 0 10 10">
   </path>
   <g class="non-terminal">
    <path d="M60 604h197.75">
    </path>
    <path d="M422.25 604h197.75">
    </path>
    <rect height="22" width="164.5" x="257.75" y="593">
    </rect>
    <a>
     <text x="340" y="608">
      paren_select_stmt
     </text>
    </a>
   </g>
   <path d="M620 604a10 10 0 0 0 10 -10v-553a10 10 0 0 1 10 -10">
   </path>
   <path d="M40 31a10 10 0 0 1 10 10v583a10 10 0 0 0 10 10">
   </path>
   <g class="non-terminal">
    <path d="M60 634h231.75">
    </path>
    <path d="M388.25 634h231.75">
    </path>
    <rect height="22" width="96.5" x="291.75" y="623">
    </rect>
    <a>
     <text x="340" y="638">
      case_expr
     </text>
    </a>
   </g>
   <path d="M620 634a10 10 0 0 0 10 -10v-583a10 10 0 0 1 10 -10">
   </path>
  </g>
  <path d="M 640 31 h 20 m 0 -10 v 20">
  </path>
 </g>
 <style>
  svg {
    width: 100%;
}

path {
    stroke-width: 3;
    stroke: black;
    fill: rgba(0,0,0,0);
}
text {
    font: bold 14px monospace;
    text-anchor: middle;
    fill: black;
}
text.diagram-text {
    font-size: 12px;
}
text.diagram-arrow {
    font-size: 16px;
}
text.label {
    text-anchor: start;
}
text.comment {
    font: italic 12px monospace;
}
g.special-sequence rect {
    fill: #ffe79a;
    stroke: black;
}
g.special-sequence text {
    font-style: italic;
}
rect {
    stroke-width: 3;
}
rect.group-box {
    stroke: gray;
    stroke-dasharray: 10 5;
    fill: none;
}
g.non-terminal rect {
    fill: #feffdf;
    stroke: black;
}
g.terminal rect {
    fill: #feffdf;
    stroke: black;
}
path.diagram-text {
    stroke-width: 3;
    stroke: black;
    fill: white;
    cursor: help;
}
g.diagram-text:hover path.diagram-text {
    fill: #eee;
}
 </style>
</svg>
