<svg class="railroad-diagram" height="1592" viewbox="0 0 148.5 1592" width="148.5" xmlns="http://www.w3.org/2000/svg">
 <g transform="translate(.5 .5)">
  <g>
   <path d="M20 21v20m10 -20v20m-10 -10h20">
   </path>
  </g>
  <g>
   <path d="M40 31h0">
   </path>
   <path d="M108.5 31h0">
   </path>
   <path d="M40 31h20">
   </path>
   <g class="terminal">
    <path d="M60 31h0">
    </path>
    <path d="M88.5 31h0">
    </path>
    <rect height="22" rx="10" ry="10" width="28.5" x="60" y="20">
    </rect>
    <text x="74.25" y="35">
     A
    </text>
   </g>
   <path d="M88.5 31h20">
   </path>
   <path d="M40 31a10 10 0 0 1 10 10v10a10 10 0 0 0 10 10">
   </path>
   <g class="terminal">
    <path d="M60 61h0">
    </path>
    <path d="M88.5 61h0">
    </path>
    <rect height="22" rx="10" ry="10" width="28.5" x="60" y="50">
    </rect>
    <text x="74.25" y="65">
     B
    </text>
   </g>
   <path d="M88.5 61a10 10 0 0 0 10 -10v-10a10 10 0 0 1 10 -10">
   </path>
   <path d="M40 31a10 10 0 0 1 10 10v40a10 10 0 0 0 10 10">
   </path>
   <g class="terminal">
    <path d="M60 91h0">
    </path>
    <path d="M88.5 91h0">
    </path>
    <rect height="22" rx="10" ry="10" width="28.5" x="60" y="80">
    </rect>
    <text x="74.25" y="95">
     C
    </text>
   </g>
   <path d="M88.5 91a10 10 0 0 0 10 -10v-40a10 10 0 0 1 10 -10">
   </path>
   <path d="M40 31a10 10 0 0 1 10 10v70a10 10 0 0 0 10 10">
   </path>
   <g class="terminal">
    <path d="M60 121h0">
    </path>
    <path d="M88.5 121h0">
    </path>
    <rect height="22" rx="10" ry="10" width="28.5" x="60" y="110">
    </rect>
    <text x="74.25" y="125">
     D
    </text>
   </g>
   <path d="M88.5 121a10 10 0 0 0 10 -10v-70a10 10 0 0 1 10 -10">
   </path>
   <path d="M40 31a10 10 0 0 1 10 10v100a10 10 0 0 0 10 10">
   </path>
   <g class="terminal">
    <path d="M60 151h0">
    </path>
    <path d="M88.5 151h0">
    </path>
    <rect height="22" rx="10" ry="10" width="28.5" x="60" y="140">
    </rect>
    <text x="74.25" y="155">
     E
    </text>
   </g>
   <path d="M88.5 151a10 10 0 0 0 10 -10v-100a10 10 0 0 1 10 -10">
   </path>
   <path d="M40 31a10 10 0 0 1 10 10v130a10 10 0 0 0 10 10">
   </path>
   <g class="terminal">
    <path d="M60 181h0">
    </path>
    <path d="M88.5 181h0">
    </path>
    <rect height="22" rx="10" ry="10" width="28.5" x="60" y="170">
    </rect>
    <text x="74.25" y="185">
     F
    </text>
   </g>
   <path d="M88.5 181a10 10 0 0 0 10 -10v-130a10 10 0 0 1 10 -10">
   </path>
   <path d="M40 31a10 10 0 0 1 10 10v160a10 10 0 0 0 10 10">
   </path>
   <g class="terminal">
    <path d="M60 211h0">
    </path>
    <path d="M88.5 211h0">
    </path>
    <rect height="22" rx="10" ry="10" width="28.5" x="60" y="200">
    </rect>
    <text x="74.25" y="215">
     G
    </text>
   </g>
   <path d="M88.5 211a10 10 0 0 0 10 -10v-160a10 10 0 0 1 10 -10">
   </path>
   <path d="M40 31a10 10 0 0 1 10 10v190a10 10 0 0 0 10 10">
   </path>
   <g class="terminal">
    <path d="M60 241h0">
    </path>
    <path d="M88.5 241h0">
    </path>
    <rect height="22" rx="10" ry="10" width="28.5" x="60" y="230">
    </rect>
    <text x="74.25" y="245">
     H
    </text>
   </g>
   <path d="M88.5 241a10 10 0 0 0 10 -10v-190a10 10 0 0 1 10 -10">
   </path>
   <path d="M40 31a10 10 0 0 1 10 10v220a10 10 0 0 0 10 10">
   </path>
   <g class="terminal">
    <path d="M60 271h0">
    </path>
    <path d="M88.5 271h0">
    </path>
    <rect height="22" rx="10" ry="10" width="28.5" x="60" y="260">
    </rect>
    <text x="74.25" y="275">
     I
    </text>
   </g>
   <path d="M88.5 271a10 10 0 0 0 10 -10v-220a10 10 0 0 1 10 -10">
   </path>
   <path d="M40 31a10 10 0 0 1 10 10v250a10 10 0 0 0 10 10">
   </path>
   <g class="terminal">
    <path d="M60 301h0">
    </path>
    <path d="M88.5 301h0">
    </path>
    <rect height="22" rx="10" ry="10" width="28.5" x="60" y="290">
    </rect>
    <text x="74.25" y="305">
     J
    </text>
   </g>
   <path d="M88.5 301a10 10 0 0 0 10 -10v-250a10 10 0 0 1 10 -10">
   </path>
   <path d="M40 31a10 10 0 0 1 10 10v280a10 10 0 0 0 10 10">
   </path>
   <g class="terminal">
    <path d="M60 331h0">
    </path>
    <path d="M88.5 331h0">
    </path>
    <rect height="22" rx="10" ry="10" width="28.5" x="60" y="320">
    </rect>
    <text x="74.25" y="335">
     K
    </text>
   </g>
   <path d="M88.5 331a10 10 0 0 0 10 -10v-280a10 10 0 0 1 10 -10">
   </path>
   <path d="M40 31a10 10 0 0 1 10 10v310a10 10 0 0 0 10 10">
   </path>
   <g class="terminal">
    <path d="M60 361h0">
    </path>
    <path d="M88.5 361h0">
    </path>
    <rect height="22" rx="10" ry="10" width="28.5" x="60" y="350">
    </rect>
    <text x="74.25" y="365">
     L
    </text>
   </g>
   <path d="M88.5 361a10 10 0 0 0 10 -10v-310a10 10 0 0 1 10 -10">
   </path>
   <path d="M40 31a10 10 0 0 1 10 10v340a10 10 0 0 0 10 10">
   </path>
   <g class="terminal">
    <path d="M60 391h0">
    </path>
    <path d="M88.5 391h0">
    </path>
    <rect height="22" rx="10" ry="10" width="28.5" x="60" y="380">
    </rect>
    <text x="74.25" y="395">
     M
    </text>
   </g>
   <path d="M88.5 391a10 10 0 0 0 10 -10v-340a10 10 0 0 1 10 -10">
   </path>
   <path d="M40 31a10 10 0 0 1 10 10v370a10 10 0 0 0 10 10">
   </path>
   <g class="terminal">
    <path d="M60 421h0">
    </path>
    <path d="M88.5 421h0">
    </path>
    <rect height="22" rx="10" ry="10" width="28.5" x="60" y="410">
    </rect>
    <text x="74.25" y="425">
     N
    </text>
   </g>
   <path d="M88.5 421a10 10 0 0 0 10 -10v-370a10 10 0 0 1 10 -10">
   </path>
   <path d="M40 31a10 10 0 0 1 10 10v400a10 10 0 0 0 10 10">
   </path>
   <g class="terminal">
    <path d="M60 451h0">
    </path>
    <path d="M88.5 451h0">
    </path>
    <rect height="22" rx="10" ry="10" width="28.5" x="60" y="440">
    </rect>
    <text x="74.25" y="455">
     O
    </text>
   </g>
   <path d="M88.5 451a10 10 0 0 0 10 -10v-400a10 10 0 0 1 10 -10">
   </path>
   <path d="M40 31a10 10 0 0 1 10 10v430a10 10 0 0 0 10 10">
   </path>
   <g class="terminal">
    <path d="M60 481h0">
    </path>
    <path d="M88.5 481h0">
    </path>
    <rect height="22" rx="10" ry="10" width="28.5" x="60" y="470">
    </rect>
    <text x="74.25" y="485">
     P
    </text>
   </g>
   <path d="M88.5 481a10 10 0 0 0 10 -10v-430a10 10 0 0 1 10 -10">
   </path>
   <path d="M40 31a10 10 0 0 1 10 10v460a10 10 0 0 0 10 10">
   </path>
   <g class="terminal">
    <path d="M60 511h0">
    </path>
    <path d="M88.5 511h0">
    </path>
    <rect height="22" rx="10" ry="10" width="28.5" x="60" y="500">
    </rect>
    <text x="74.25" y="515">
     Q
    </text>
   </g>
   <path d="M88.5 511a10 10 0 0 0 10 -10v-460a10 10 0 0 1 10 -10">
   </path>
   <path d="M40 31a10 10 0 0 1 10 10v490a10 10 0 0 0 10 10">
   </path>
   <g class="terminal">
    <path d="M60 541h0">
    </path>
    <path d="M88.5 541h0">
    </path>
    <rect height="22" rx="10" ry="10" width="28.5" x="60" y="530">
    </rect>
    <text x="74.25" y="545">
     R
    </text>
   </g>
   <path d="M88.5 541a10 10 0 0 0 10 -10v-490a10 10 0 0 1 10 -10">
   </path>
   <path d="M40 31a10 10 0 0 1 10 10v520a10 10 0 0 0 10 10">
   </path>
   <g class="terminal">
    <path d="M60 571h0">
    </path>
    <path d="M88.5 571h0">
    </path>
    <rect height="22" rx="10" ry="10" width="28.5" x="60" y="560">
    </rect>
    <text x="74.25" y="575">
     S
    </text>
   </g>
   <path d="M88.5 571a10 10 0 0 0 10 -10v-520a10 10 0 0 1 10 -10">
   </path>
   <path d="M40 31a10 10 0 0 1 10 10v550a10 10 0 0 0 10 10">
   </path>
   <g class="terminal">
    <path d="M60 601h0">
    </path>
    <path d="M88.5 601h0">
    </path>
    <rect height="22" rx="10" ry="10" width="28.5" x="60" y="590">
    </rect>
    <text x="74.25" y="605">
     T
    </text>
   </g>
   <path d="M88.5 601a10 10 0 0 0 10 -10v-550a10 10 0 0 1 10 -10">
   </path>
   <path d="M40 31a10 10 0 0 1 10 10v580a10 10 0 0 0 10 10">
   </path>
   <g class="terminal">
    <path d="M60 631h0">
    </path>
    <path d="M88.5 631h0">
    </path>
    <rect height="22" rx="10" ry="10" width="28.5" x="60" y="620">
    </rect>
    <text x="74.25" y="635">
     U
    </text>
   </g>
   <path d="M88.5 631a10 10 0 0 0 10 -10v-580a10 10 0 0 1 10 -10">
   </path>
   <path d="M40 31a10 10 0 0 1 10 10v610a10 10 0 0 0 10 10">
   </path>
   <g class="terminal">
    <path d="M60 661h0">
    </path>
    <path d="M88.5 661h0">
    </path>
    <rect height="22" rx="10" ry="10" width="28.5" x="60" y="650">
    </rect>
    <text x="74.25" y="665">
     V
    </text>
   </g>
   <path d="M88.5 661a10 10 0 0 0 10 -10v-610a10 10 0 0 1 10 -10">
   </path>
   <path d="M40 31a10 10 0 0 1 10 10v640a10 10 0 0 0 10 10">
   </path>
   <g class="terminal">
    <path d="M60 691h0">
    </path>
    <path d="M88.5 691h0">
    </path>
    <rect height="22" rx="10" ry="10" width="28.5" x="60" y="680">
    </rect>
    <text x="74.25" y="695">
     W
    </text>
   </g>
   <path d="M88.5 691a10 10 0 0 0 10 -10v-640a10 10 0 0 1 10 -10">
   </path>
   <path d="M40 31a10 10 0 0 1 10 10v670a10 10 0 0 0 10 10">
   </path>
   <g class="terminal">
    <path d="M60 721h0">
    </path>
    <path d="M88.5 721h0">
    </path>
    <rect height="22" rx="10" ry="10" width="28.5" x="60" y="710">
    </rect>
    <text x="74.25" y="725">
     X
    </text>
   </g>
   <path d="M88.5 721a10 10 0 0 0 10 -10v-670a10 10 0 0 1 10 -10">
   </path>
   <path d="M40 31a10 10 0 0 1 10 10v700a10 10 0 0 0 10 10">
   </path>
   <g class="terminal">
    <path d="M60 751h0">
    </path>
    <path d="M88.5 751h0">
    </path>
    <rect height="22" rx="10" ry="10" width="28.5" x="60" y="740">
    </rect>
    <text x="74.25" y="755">
     Y
    </text>
   </g>
   <path d="M88.5 751a10 10 0 0 0 10 -10v-700a10 10 0 0 1 10 -10">
   </path>
   <path d="M40 31a10 10 0 0 1 10 10v730a10 10 0 0 0 10 10">
   </path>
   <g class="terminal">
    <path d="M60 781h0">
    </path>
    <path d="M88.5 781h0">
    </path>
    <rect height="22" rx="10" ry="10" width="28.5" x="60" y="770">
    </rect>
    <text x="74.25" y="785">
     Z
    </text>
   </g>
   <path d="M88.5 781a10 10 0 0 0 10 -10v-730a10 10 0 0 1 10 -10">
   </path>
   <path d="M40 31a10 10 0 0 1 10 10v760a10 10 0 0 0 10 10">
   </path>
   <g class="terminal">
    <path d="M60 811h0">
    </path>
    <path d="M88.5 811h0">
    </path>
    <rect height="22" rx="10" ry="10" width="28.5" x="60" y="800">
    </rect>
    <text x="74.25" y="815">
     a
    </text>
   </g>
   <path d="M88.5 811a10 10 0 0 0 10 -10v-760a10 10 0 0 1 10 -10">
   </path>
   <path d="M40 31a10 10 0 0 1 10 10v790a10 10 0 0 0 10 10">
   </path>
   <g class="terminal">
    <path d="M60 841h0">
    </path>
    <path d="M88.5 841h0">
    </path>
    <rect height="22" rx="10" ry="10" width="28.5" x="60" y="830">
    </rect>
    <text x="74.25" y="845">
     b
    </text>
   </g>
   <path d="M88.5 841a10 10 0 0 0 10 -10v-790a10 10 0 0 1 10 -10">
   </path>
   <path d="M40 31a10 10 0 0 1 10 10v820a10 10 0 0 0 10 10">
   </path>
   <g class="terminal">
    <path d="M60 871h0">
    </path>
    <path d="M88.5 871h0">
    </path>
    <rect height="22" rx="10" ry="10" width="28.5" x="60" y="860">
    </rect>
    <text x="74.25" y="875">
     c
    </text>
   </g>
   <path d="M88.5 871a10 10 0 0 0 10 -10v-820a10 10 0 0 1 10 -10">
   </path>
   <path d="M40 31a10 10 0 0 1 10 10v850a10 10 0 0 0 10 10">
   </path>
   <g class="terminal">
    <path d="M60 901h0">
    </path>
    <path d="M88.5 901h0">
    </path>
    <rect height="22" rx="10" ry="10" width="28.5" x="60" y="890">
    </rect>
    <text x="74.25" y="905">
     d
    </text>
   </g>
   <path d="M88.5 901a10 10 0 0 0 10 -10v-850a10 10 0 0 1 10 -10">
   </path>
   <path d="M40 31a10 10 0 0 1 10 10v880a10 10 0 0 0 10 10">
   </path>
   <g class="terminal">
    <path d="M60 931h0">
    </path>
    <path d="M88.5 931h0">
    </path>
    <rect height="22" rx="10" ry="10" width="28.5" x="60" y="920">
    </rect>
    <text x="74.25" y="935">
     e
    </text>
   </g>
   <path d="M88.5 931a10 10 0 0 0 10 -10v-880a10 10 0 0 1 10 -10">
   </path>
   <path d="M40 31a10 10 0 0 1 10 10v910a10 10 0 0 0 10 10">
   </path>
   <g class="terminal">
    <path d="M60 961h0">
    </path>
    <path d="M88.5 961h0">
    </path>
    <rect height="22" rx="10" ry="10" width="28.5" x="60" y="950">
    </rect>
    <text x="74.25" y="965">
     f
    </text>
   </g>
   <path d="M88.5 961a10 10 0 0 0 10 -10v-910a10 10 0 0 1 10 -10">
   </path>
   <path d="M40 31a10 10 0 0 1 10 10v940a10 10 0 0 0 10 10">
   </path>
   <g class="terminal">
    <path d="M60 991h0">
    </path>
    <path d="M88.5 991h0">
    </path>
    <rect height="22" rx="10" ry="10" width="28.5" x="60" y="980">
    </rect>
    <text x="74.25" y="995">
     g
    </text>
   </g>
   <path d="M88.5 991a10 10 0 0 0 10 -10v-940a10 10 0 0 1 10 -10">
   </path>
   <path d="M40 31a10 10 0 0 1 10 10v970a10 10 0 0 0 10 10">
   </path>
   <g class="terminal">
    <path d="M60 1021h0">
    </path>
    <path d="M88.5 1021h0">
    </path>
    <rect height="22" rx="10" ry="10" width="28.5" x="60" y="1010">
    </rect>
    <text x="74.25" y="1025">
     h
    </text>
   </g>
   <path d="M88.5 1021a10 10 0 0 0 10 -10v-970a10 10 0 0 1 10 -10">
   </path>
   <path d="M40 31a10 10 0 0 1 10 10v1000a10 10 0 0 0 10 10">
   </path>
   <g class="terminal">
    <path d="M60 1051h0">
    </path>
    <path d="M88.5 1051h0">
    </path>
    <rect height="22" rx="10" ry="10" width="28.5" x="60" y="1040">
    </rect>
    <text x="74.25" y="1055">
     i
    </text>
   </g>
   <path d="M88.5 1051a10 10 0 0 0 10 -10v-1000a10 10 0 0 1 10 -10">
   </path>
   <path d="M40 31a10 10 0 0 1 10 10v1030a10 10 0 0 0 10 10">
   </path>
   <g class="terminal">
    <path d="M60 1081h0">
    </path>
    <path d="M88.5 1081h0">
    </path>
    <rect height="22" rx="10" ry="10" width="28.5" x="60" y="1070">
    </rect>
    <text x="74.25" y="1085">
     j
    </text>
   </g>
   <path d="M88.5 1081a10 10 0 0 0 10 -10v-1030a10 10 0 0 1 10 -10">
   </path>
   <path d="M40 31a10 10 0 0 1 10 10v1060a10 10 0 0 0 10 10">
   </path>
   <g class="terminal">
    <path d="M60 1111h0">
    </path>
    <path d="M88.5 1111h0">
    </path>
    <rect height="22" rx="10" ry="10" width="28.5" x="60" y="1100">
    </rect>
    <text x="74.25" y="1115">
     k
    </text>
   </g>
   <path d="M88.5 1111a10 10 0 0 0 10 -10v-1060a10 10 0 0 1 10 -10">
   </path>
   <path d="M40 31a10 10 0 0 1 10 10v1090a10 10 0 0 0 10 10">
   </path>
   <g class="terminal">
    <path d="M60 1141h0">
    </path>
    <path d="M88.5 1141h0">
    </path>
    <rect height="22" rx="10" ry="10" width="28.5" x="60" y="1130">
    </rect>
    <text x="74.25" y="1145">
     l
    </text>
   </g>
   <path d="M88.5 1141a10 10 0 0 0 10 -10v-1090a10 10 0 0 1 10 -10">
   </path>
   <path d="M40 31a10 10 0 0 1 10 10v1120a10 10 0 0 0 10 10">
   </path>
   <g class="terminal">
    <path d="M60 1171h0">
    </path>
    <path d="M88.5 1171h0">
    </path>
    <rect height="22" rx="10" ry="10" width="28.5" x="60" y="1160">
    </rect>
    <text x="74.25" y="1175">
     m
    </text>
   </g>
   <path d="M88.5 1171a10 10 0 0 0 10 -10v-1120a10 10 0 0 1 10 -10">
   </path>
   <path d="M40 31a10 10 0 0 1 10 10v1150a10 10 0 0 0 10 10">
   </path>
   <g class="terminal">
    <path d="M60 1201h0">
    </path>
    <path d="M88.5 1201h0">
    </path>
    <rect height="22" rx="10" ry="10" width="28.5" x="60" y="1190">
    </rect>
    <text x="74.25" y="1205">
     n
    </text>
   </g>
   <path d="M88.5 1201a10 10 0 0 0 10 -10v-1150a10 10 0 0 1 10 -10">
   </path>
   <path d="M40 31a10 10 0 0 1 10 10v1180a10 10 0 0 0 10 10">
   </path>
   <g class="terminal">
    <path d="M60 1231h0">
    </path>
    <path d="M88.5 1231h0">
    </path>
    <rect height="22" rx="10" ry="10" width="28.5" x="60" y="1220">
    </rect>
    <text x="74.25" y="1235">
     o
    </text>
   </g>
   <path d="M88.5 1231a10 10 0 0 0 10 -10v-1180a10 10 0 0 1 10 -10">
   </path>
   <path d="M40 31a10 10 0 0 1 10 10v1210a10 10 0 0 0 10 10">
   </path>
   <g class="terminal">
    <path d="M60 1261h0">
    </path>
    <path d="M88.5 1261h0">
    </path>
    <rect height="22" rx="10" ry="10" width="28.5" x="60" y="1250">
    </rect>
    <text x="74.25" y="1265">
     p
    </text>
   </g>
   <path d="M88.5 1261a10 10 0 0 0 10 -10v-1210a10 10 0 0 1 10 -10">
   </path>
   <path d="M40 31a10 10 0 0 1 10 10v1240a10 10 0 0 0 10 10">
   </path>
   <g class="terminal">
    <path d="M60 1291h0">
    </path>
    <path d="M88.5 1291h0">
    </path>
    <rect height="22" rx="10" ry="10" width="28.5" x="60" y="1280">
    </rect>
    <text x="74.25" y="1295">
     q
    </text>
   </g>
   <path d="M88.5 1291a10 10 0 0 0 10 -10v-1240a10 10 0 0 1 10 -10">
   </path>
   <path d="M40 31a10 10 0 0 1 10 10v1270a10 10 0 0 0 10 10">
   </path>
   <g class="terminal">
    <path d="M60 1321h0">
    </path>
    <path d="M88.5 1321h0">
    </path>
    <rect height="22" rx="10" ry="10" width="28.5" x="60" y="1310">
    </rect>
    <text x="74.25" y="1325">
     r
    </text>
   </g>
   <path d="M88.5 1321a10 10 0 0 0 10 -10v-1270a10 10 0 0 1 10 -10">
   </path>
   <path d="M40 31a10 10 0 0 1 10 10v1300a10 10 0 0 0 10 10">
   </path>
   <g class="terminal">
    <path d="M60 1351h0">
    </path>
    <path d="M88.5 1351h0">
    </path>
    <rect height="22" rx="10" ry="10" width="28.5" x="60" y="1340">
    </rect>
    <text x="74.25" y="1355">
     s
    </text>
   </g>
   <path d="M88.5 1351a10 10 0 0 0 10 -10v-1300a10 10 0 0 1 10 -10">
   </path>
   <path d="M40 31a10 10 0 0 1 10 10v1330a10 10 0 0 0 10 10">
   </path>
   <g class="terminal">
    <path d="M60 1381h0">
    </path>
    <path d="M88.5 1381h0">
    </path>
    <rect height="22" rx="10" ry="10" width="28.5" x="60" y="1370">
    </rect>
    <text x="74.25" y="1385">
     t
    </text>
   </g>
   <path d="M88.5 1381a10 10 0 0 0 10 -10v-1330a10 10 0 0 1 10 -10">
   </path>
   <path d="M40 31a10 10 0 0 1 10 10v1360a10 10 0 0 0 10 10">
   </path>
   <g class="terminal">
    <path d="M60 1411h0">
    </path>
    <path d="M88.5 1411h0">
    </path>
    <rect height="22" rx="10" ry="10" width="28.5" x="60" y="1400">
    </rect>
    <text x="74.25" y="1415">
     u
    </text>
   </g>
   <path d="M88.5 1411a10 10 0 0 0 10 -10v-1360a10 10 0 0 1 10 -10">
   </path>
   <path d="M40 31a10 10 0 0 1 10 10v1390a10 10 0 0 0 10 10">
   </path>
   <g class="terminal">
    <path d="M60 1441h0">
    </path>
    <path d="M88.5 1441h0">
    </path>
    <rect height="22" rx="10" ry="10" width="28.5" x="60" y="1430">
    </rect>
    <text x="74.25" y="1445">
     v
    </text>
   </g>
   <path d="M88.5 1441a10 10 0 0 0 10 -10v-1390a10 10 0 0 1 10 -10">
   </path>
   <path d="M40 31a10 10 0 0 1 10 10v1420a10 10 0 0 0 10 10">
   </path>
   <g class="terminal">
    <path d="M60 1471h0">
    </path>
    <path d="M88.5 1471h0">
    </path>
    <rect height="22" rx="10" ry="10" width="28.5" x="60" y="1460">
    </rect>
    <text x="74.25" y="1475">
     w
    </text>
   </g>
   <path d="M88.5 1471a10 10 0 0 0 10 -10v-1420a10 10 0 0 1 10 -10">
   </path>
   <path d="M40 31a10 10 0 0 1 10 10v1450a10 10 0 0 0 10 10">
   </path>
   <g class="terminal">
    <path d="M60 1501h0">
    </path>
    <path d="M88.5 1501h0">
    </path>
    <rect height="22" rx="10" ry="10" width="28.5" x="60" y="1490">
    </rect>
    <text x="74.25" y="1505">
     x
    </text>
   </g>
   <path d="M88.5 1501a10 10 0 0 0 10 -10v-1450a10 10 0 0 1 10 -10">
   </path>
   <path d="M40 31a10 10 0 0 1 10 10v1480a10 10 0 0 0 10 10">
   </path>
   <g class="terminal">
    <path d="M60 1531h0">
    </path>
    <path d="M88.5 1531h0">
    </path>
    <rect height="22" rx="10" ry="10" width="28.5" x="60" y="1520">
    </rect>
    <text x="74.25" y="1535">
     y
    </text>
   </g>
   <path d="M88.5 1531a10 10 0 0 0 10 -10v-1480a10 10 0 0 1 10 -10">
   </path>
   <path d="M40 31a10 10 0 0 1 10 10v1510a10 10 0 0 0 10 10">
   </path>
   <g class="terminal">
    <path d="M60 1561h0">
    </path>
    <path d="M88.5 1561h0">
    </path>
    <rect height="22" rx="10" ry="10" width="28.5" x="60" y="1550">
    </rect>
    <text x="74.25" y="1565">
     z
    </text>
   </g>
   <path d="M88.5 1561a10 10 0 0 0 10 -10v-1510a10 10 0 0 1 10 -10">
   </path>
  </g>
  <path d="M 108.5 31 h 20 m -10 -10 v 20 m 10 -20 v 20">
  </path>
 </g>
 <style>
  svg {
    width: 100%;
}

path {
    stroke-width: 3;
    stroke: black;
    fill: rgba(0,0,0,0);
}
text {
    font: bold 14px monospace;
    text-anchor: middle;
    fill: black;
}
text.diagram-text {
    font-size: 12px;
}
text.diagram-arrow {
    font-size: 16px;
}
text.label {
    text-anchor: start;
}
text.comment {
    font: italic 12px monospace;
}
g.special-sequence rect {
    fill: #ffe79a;
    stroke: black;
}
g.special-sequence text {
    font-style: italic;
}
rect {
    stroke-width: 3;
}
rect.group-box {
    stroke: gray;
    stroke-dasharray: 10 5;
    fill: none;
}
g.non-terminal rect {
    fill: #feffdf;
    stroke: black;
}
g.terminal rect {
    fill: #feffdf;
    stroke: black;
}
path.diagram-text {
    stroke-width: 3;
    stroke: black;
    fill: white;
    cursor: help;
}
g.diagram-text:hover path.diagram-text {
    fill: #eee;
}
 </style>
</svg>
