<svg class="railroad-diagram" height="110" viewbox="0 0 479 110" width="479" xmlns="http://www.w3.org/2000/svg">
 <g transform="translate(.5 .5)">
  <g>
   <path d="M20 21v20m0 -10h20">
   </path>
  </g>
  <path d="M40 31h10">
  </path>
  <g>
   <path d="M50 31h0">
   </path>
   <path d="M429 31h0">
   </path>
   <g class="terminal">
    <path d="M50 31h0">
    </path>
    <path d="M95.5 31h0">
    </path>
    <rect height="22" rx="10" ry="10" width="45.5" x="50" y="20">
    </rect>
    <text x="72.75" y="35">
     _ID
    </text>
   </g>
   <path d="M95.5 31h10">
   </path>
   <path d="M105.5 31h10">
   </path>
   <g class="terminal">
    <path d="M115.5 31h0">
    </path>
    <path d="M152.5 31h0">
    </path>
    <rect height="22" rx="10" ry="10" width="37" x="115.5" y="20">
    </rect>
    <text x="134" y="35">
     TO
    </text>
   </g>
   <path d="M152.5 31h10">
   </path>
   <g>
    <path d="M162.5 31h0">
    </path>
    <path d="M429 31h0">
    </path>
    <path d="M162.5 31h20">
    </path>
    <g class="terminal">
     <path d="M182.5 31h48">
     </path>
     <path d="M361 31h48">
     </path>
     <rect height="22" rx="10" ry="10" width="130.5" x="230.5" y="20">
     </rect>
     <text x="295.75" y="35">
      AUTOINCREMENT
     </text>
    </g>
    <path d="M409 31h20">
    </path>
    <path d="M162.5 31a10 10 0 0 1 10 10v19a10 10 0 0 0 10 10">
    </path>
    <g>
     <path d="M182.5 70h0">
     </path>
     <path d="M409 70h0">
     </path>
     <g class="non-terminal">
      <path d="M182.5 70h0">
      </path>
      <path d="M236.5 70h0">
      </path>
      <rect height="22" width="54" x="182.5" y="59">
      </rect>
      <a>
       <text x="209.5" y="74">
        expr
       </text>
      </a>
     </g>
     <path d="M236.5 70h10">
     </path>
     <g>
      <path d="M246.5 70h0">
      </path>
      <path d="M409 70h0">
      </path>
      <path d="M246.5 70a10 10 0 0 0 10 -10v0a10 10 0 0 1 10 -10">
      </path>
      <g>
       <path d="M266.5 50h122.5">
       </path>
      </g>
      <path d="M389 50a10 10 0 0 1 10 10v0a10 10 0 0 0 10 10">
      </path>
      <path d="M246.5 70h20">
      </path>
      <g>
       <path d="M266.5 70h0">
       </path>
       <path d="M389 70h0">
       </path>
       <path d="M266.5 70h10">
       </path>
       <g>
        <path d="M276.5 70h0">
        </path>
        <path d="M379 70h0">
        </path>
        <g class="terminal">
         <path d="M276.5 70h0">
         </path>
         <path d="M305 70h0">
         </path>
         <rect height="22" rx="10" ry="10" width="28.5" x="276.5" y="59">
         </rect>
         <text x="290.75" y="74">
          ,
         </text>
        </g>
        <path d="M305 70h10">
        </path>
        <path d="M315 70h10">
        </path>
        <g class="non-terminal">
         <path d="M325 70h0">
         </path>
         <path d="M379 70h0">
         </path>
         <rect height="22" width="54" x="325" y="59">
         </rect>
         <a>
          <text x="352" y="74">
           expr
          </text>
         </a>
        </g>
       </g>
       <path d="M379 70h10">
       </path>
       <path d="M276.5 70a10 10 0 0 0 -10 10v0a10 10 0 0 0 10 10">
       </path>
       <g>
        <path d="M276.5 90h102.5">
        </path>
       </g>
       <path d="M379 90a10 10 0 0 0 10 -10v0a10 10 0 0 0 -10 -10">
       </path>
      </g>
      <path d="M389 70h20">
      </path>
     </g>
    </g>
    <path d="M409 70a10 10 0 0 0 10 -10v-19a10 10 0 0 1 10 -10">
    </path>
   </g>
  </g>
  <path d="M429 31h10">
  </path>
  <path d="M 439 31 h 20 m 0 -10 v 20">
  </path>
 </g>
 <style>
  svg {
    width: 100%;
}

path {
    stroke-width: 3;
    stroke: black;
    fill: rgba(0,0,0,0);
}
text {
    font: bold 14px monospace;
    text-anchor: middle;
    fill: black;
}
text.diagram-text {
    font-size: 12px;
}
text.diagram-arrow {
    font-size: 16px;
}
text.label {
    text-anchor: start;
}
text.comment {
    font: italic 12px monospace;
}
g.special-sequence rect {
    fill: #ffe79a;
    stroke: black;
}
g.special-sequence text {
    font-style: italic;
}
rect {
    stroke-width: 3;
}
rect.group-box {
    stroke: gray;
    stroke-dasharray: 10 5;
    fill: none;
}
g.non-terminal rect {
    fill: #feffdf;
    stroke: black;
}
g.terminal rect {
    fill: #feffdf;
    stroke: black;
}
path.diagram-text {
    stroke-width: 3;
    stroke: black;
    fill: white;
    cursor: help;
}
g.diagram-text:hover path.diagram-text {
    fill: #eee;
}
 </style>
</svg>
