<svg class="railroad-diagram" height="62" viewbox="0 0 529 62" width="529" xmlns="http://www.w3.org/2000/svg">
 <g transform="translate(.5 .5)">
  <g>
   <path d="M20 21v20m0 -10h20">
   </path>
  </g>
  <path d="M40 31h10">
  </path>
  <g>
   <path d="M50 31h0">
   </path>
   <path d="M479 31h0">
   </path>
   <g class="terminal">
    <path d="M50 31h0">
    </path>
    <path d="M121 31h0">
    </path>
    <rect height="22" rx="10" ry="10" width="71" x="50" y="20">
    </rect>
    <text x="85.5" y="35">
     OFFSET
    </text>
   </g>
   <path d="M121 31h10">
   </path>
   <path d="M131 31h10">
   </path>
   <g class="non-terminal">
    <path d="M141 31h0">
    </path>
    <path d="M288.5 31h0">
    </path>
    <rect height="22" width="147.5" x="141" y="20">
    </rect>
    <a>
     <text x="214.75" y="35">
      integer_literal
     </text>
    </a>
   </g>
   <path d="M288.5 31h10">
   </path>
   <path d="M298.5 31h10">
   </path>
   <g class="terminal">
    <path d="M308.5 31h0">
    </path>
    <path d="M345.5 31h0">
    </path>
    <rect height="22" rx="10" ry="10" width="37" x="308.5" y="20">
    </rect>
    <text x="327" y="35">
     TO
    </text>
   </g>
   <path d="M345.5 31h10">
   </path>
   <path d="M355.5 31h10">
   </path>
   <g class="non-terminal">
    <path d="M365.5 31h0">
    </path>
    <path d="M479 31h0">
    </path>
    <rect height="22" width="113.5" x="365.5" y="20">
    </rect>
    <a>
     <text x="422.25" y="35">
      column_name
     </text>
    </a>
   </g>
  </g>
  <path d="M479 31h10">
  </path>
  <path d="M 489 31 h 20 m 0 -10 v 20">
  </path>
 </g>
 <style>
  svg {
    width: 100%;
}

path {
    stroke-width: 3;
    stroke: black;
    fill: rgba(0,0,0,0);
}
text {
    font: bold 14px monospace;
    text-anchor: middle;
    fill: black;
}
text.diagram-text {
    font-size: 12px;
}
text.diagram-arrow {
    font-size: 16px;
}
text.label {
    text-anchor: start;
}
text.comment {
    font: italic 12px monospace;
}
g.special-sequence rect {
    fill: #ffe79a;
    stroke: black;
}
g.special-sequence text {
    font-style: italic;
}
rect {
    stroke-width: 3;
}
rect.group-box {
    stroke: gray;
    stroke-dasharray: 10 5;
    fill: none;
}
g.non-terminal rect {
    fill: #feffdf;
    stroke: black;
}
g.terminal rect {
    fill: #feffdf;
    stroke: black;
}
path.diagram-text {
    stroke-width: 3;
    stroke: black;
    fill: white;
    cursor: help;
}
g.diagram-text:hover path.diagram-text {
    fill: #eee;
}
 </style>
</svg>
