<svg class="railroad-diagram" height="80" viewbox="0 0 721 80" width="721" xmlns="http://www.w3.org/2000/svg">
 <g transform="translate(.5 .5)">
  <g>
   <path d="M20 30v20m0 -10h20">
   </path>
  </g>
  <path d="M40 40h10">
  </path>
  <g>
   <path d="M50 40h0">
   </path>
   <path d="M671 40h0">
   </path>
   <g class="terminal">
    <path d="M50 40h0">
    </path>
    <path d="M112.5 40h0">
    </path>
    <rect height="22" rx="10" ry="10" width="62.5" x="50" y="29">
    </rect>
    <text x="81.25" y="44">
     ORDER
    </text>
   </g>
   <path d="M112.5 40h10">
   </path>
   <path d="M122.5 40h10">
   </path>
   <g class="terminal">
    <path d="M132.5 40h0">
    </path>
    <path d="M169.5 40h0">
    </path>
    <rect height="22" rx="10" ry="10" width="37" x="132.5" y="29">
    </rect>
    <text x="151" y="44">
     BY
    </text>
   </g>
   <path d="M169.5 40h10">
   </path>
   <path d="M179.5 40h10">
   </path>
   <g class="non-terminal">
    <path d="M189.5 40h0">
    </path>
    <path d="M371 40h0">
    </path>
    <rect height="22" width="181.5" x="189.5" y="29">
    </rect>
    <a>
     <text x="280.25" y="44">
      order_by_expression
     </text>
    </a>
   </g>
   <path d="M371 40h10">
   </path>
   <g>
    <path d="M381 40h0">
    </path>
    <path d="M671 40h0">
    </path>
    <path d="M381 40a10 10 0 0 0 10 -10v0a10 10 0 0 1 10 -10">
    </path>
    <g>
     <path d="M401 20h250">
     </path>
    </g>
    <path d="M651 20a10 10 0 0 1 10 10v0a10 10 0 0 0 10 10">
    </path>
    <path d="M381 40h20">
    </path>
    <g>
     <path d="M401 40h0">
     </path>
     <path d="M651 40h0">
     </path>
     <path d="M401 40h10">
     </path>
     <g>
      <path d="M411 40h0">
      </path>
      <path d="M641 40h0">
      </path>
      <g class="terminal">
       <path d="M411 40h0">
       </path>
       <path d="M439.5 40h0">
       </path>
       <rect height="22" rx="10" ry="10" width="28.5" x="411" y="29">
       </rect>
       <text x="425.25" y="44">
        ,
       </text>
      </g>
      <path d="M439.5 40h10">
      </path>
      <path d="M449.5 40h10">
      </path>
      <g class="non-terminal">
       <path d="M459.5 40h0">
       </path>
       <path d="M641 40h0">
       </path>
       <rect height="22" width="181.5" x="459.5" y="29">
       </rect>
       <a>
        <text x="550.25" y="44">
         order_by_expression
        </text>
       </a>
      </g>
     </g>
     <path d="M641 40h10">
     </path>
     <path d="M411 40a10 10 0 0 0 -10 10v0a10 10 0 0 0 10 10">
     </path>
     <g>
      <path d="M411 60h230">
      </path>
     </g>
     <path d="M641 60a10 10 0 0 0 10 -10v0a10 10 0 0 0 -10 -10">
     </path>
    </g>
    <path d="M651 40h20">
    </path>
   </g>
  </g>
  <path d="M671 40h10">
  </path>
  <path d="M 681 40 h 20 m 0 -10 v 20">
  </path>
 </g>
 <style>
  svg {
    width: 100%;
}

path {
    stroke-width: 3;
    stroke: black;
    fill: rgba(0,0,0,0);
}
text {
    font: bold 14px monospace;
    text-anchor: middle;
    fill: black;
}
text.diagram-text {
    font-size: 12px;
}
text.diagram-arrow {
    font-size: 16px;
}
text.label {
    text-anchor: start;
}
text.comment {
    font: italic 12px monospace;
}
g.special-sequence rect {
    fill: #ffe79a;
    stroke: black;
}
g.special-sequence text {
    font-style: italic;
}
rect {
    stroke-width: 3;
}
rect.group-box {
    stroke: gray;
    stroke-dasharray: 10 5;
    fill: none;
}
g.non-terminal rect {
    fill: #feffdf;
    stroke: black;
}
g.terminal rect {
    fill: #feffdf;
    stroke: black;
}
path.diagram-text {
    stroke-width: 3;
    stroke: black;
    fill: white;
    cursor: help;
}
g.diagram-text:hover path.diagram-text {
    fill: #eee;
}
 </style>
</svg>
