<svg class="railroad-diagram" height="92" viewbox="0 0 355 92" width="355" xmlns="http://www.w3.org/2000/svg">
 <g transform="translate(.5 .5)">
  <g>
   <path d="M20 21v20m0 -10h20">
   </path>
  </g>
  <path d="M40 31h10">
  </path>
  <g>
   <path d="M50 31h0">
   </path>
   <path d="M305 31h0">
   </path>
   <g>
    <path d="M50 31h0">
    </path>
    <path d="M144 31h0">
    </path>
    <path d="M50 31h20">
    </path>
    <g class="terminal">
     <path d="M70 31h4.25">
     </path>
     <path d="M119.75 31h4.25">
     </path>
     <rect height="22" rx="10" ry="10" width="45.5" x="74.25" y="20">
     </rect>
     <text x="97" y="35">
      TOP
     </text>
    </g>
    <path d="M124 31h20">
    </path>
    <path d="M50 31a10 10 0 0 1 10 10v10a10 10 0 0 0 10 10">
    </path>
    <g class="terminal">
     <path d="M70 61h0">
     </path>
     <path d="M124 61h0">
     </path>
     <rect height="22" rx="10" ry="10" width="54" x="70" y="50">
     </rect>
     <text x="97" y="65">
      TOPN
     </text>
    </g>
    <path d="M124 61a10 10 0 0 0 10 -10v-10a10 10 0 0 1 10 -10">
    </path>
   </g>
   <path d="M144 31h10">
   </path>
   <g class="terminal">
    <path d="M154 31h0">
    </path>
    <path d="M182.5 31h0">
    </path>
    <rect height="22" rx="10" ry="10" width="28.5" x="154" y="20">
    </rect>
    <text x="168.25" y="35">
     (
    </text>
   </g>
   <path d="M182.5 31h10">
   </path>
   <path d="M192.5 31h10">
   </path>
   <g class="non-terminal">
    <path d="M202.5 31h0">
    </path>
    <path d="M256.5 31h0">
    </path>
    <rect height="22" width="54" x="202.5" y="20">
    </rect>
    <a>
     <text x="229.5" y="35">
      expr
     </text>
    </a>
   </g>
   <path d="M256.5 31h10">
   </path>
   <path d="M266.5 31h10">
   </path>
   <g class="terminal">
    <path d="M276.5 31h0">
    </path>
    <path d="M305 31h0">
    </path>
    <rect height="22" rx="10" ry="10" width="28.5" x="276.5" y="20">
    </rect>
    <text x="290.75" y="35">
     )
    </text>
   </g>
  </g>
  <path d="M305 31h10">
  </path>
  <path d="M 315 31 h 20 m 0 -10 v 20">
  </path>
 </g>
 <style>
  svg {
    width: 100%;
}

path {
    stroke-width: 3;
    stroke: black;
    fill: rgba(0,0,0,0);
}
text {
    font: bold 14px monospace;
    text-anchor: middle;
    fill: black;
}
text.diagram-text {
    font-size: 12px;
}
text.diagram-arrow {
    font-size: 16px;
}
text.label {
    text-anchor: start;
}
text.comment {
    font: italic 12px monospace;
}
g.special-sequence rect {
    fill: #ffe79a;
    stroke: black;
}
g.special-sequence text {
    font-style: italic;
}
rect {
    stroke-width: 3;
}
rect.group-box {
    stroke: gray;
    stroke-dasharray: 10 5;
    fill: none;
}
g.non-terminal rect {
    fill: #feffdf;
    stroke: black;
}
g.terminal rect {
    fill: #feffdf;
    stroke: black;
}
path.diagram-text {
    stroke-width: 3;
    stroke: black;
    fill: white;
    cursor: help;
}
g.diagram-text:hover path.diagram-text {
    fill: #eee;
}
 </style>
</svg>
