<svg class="railroad-diagram" height="272" viewbox="0 0 216.5 272" width="216.5" xmlns="http://www.w3.org/2000/svg">
 <g transform="translate(.5 .5)">
  <g>
   <path d="M20 21v20m10 -20v20m-10 -10h20">
   </path>
  </g>
  <g>
   <path d="M40 31h0">
   </path>
   <path d="M176.5 31h0">
   </path>
   <path d="M40 31h20">
   </path>
   <g class="terminal">
    <path d="M60 31h25.5">
    </path>
    <path d="M131 31h25.5">
    </path>
    <rect height="22" rx="10" ry="10" width="45.5" x="85.5" y="20">
    </rect>
    <text x="108.25" y="35">
     INT
    </text>
   </g>
   <path d="M156.5 31h20">
   </path>
   <path d="M40 31a10 10 0 0 1 10 10v10a10 10 0 0 0 10 10">
   </path>
   <g class="terminal">
    <path d="M60 61h21.25">
    </path>
    <path d="M135.25 61h21.25">
    </path>
    <rect height="22" rx="10" ry="10" width="54" x="81.25" y="50">
    </rect>
    <text x="108.25" y="65">
     BOOL
    </text>
   </g>
   <path d="M156.5 61a10 10 0 0 0 10 -10v-10a10 10 0 0 1 10 -10">
   </path>
   <path d="M40 31a10 10 0 0 1 10 10v40a10 10 0 0 0 10 10">
   </path>
   <g class="terminal">
    <path d="M60 91h0">
    </path>
    <path d="M156.5 91h0">
    </path>
    <rect height="22" rx="10" ry="10" width="96.5" x="60" y="80">
    </rect>
    <text x="108.25" y="95">
     TIMESTAMP
    </text>
   </g>
   <path d="M156.5 91a10 10 0 0 0 10 -10v-40a10 10 0 0 1 10 -10">
   </path>
   <path d="M40 31a10 10 0 0 1 10 10v70a10 10 0 0 0 10 10">
   </path>
   <g class="terminal">
    <path d="M60 121h8.5">
    </path>
    <path d="M148 121h8.5">
    </path>
    <rect height="22" rx="10" ry="10" width="79.5" x="68.5" y="110">
    </rect>
    <text x="108.25" y="125">
     DECIMAL
    </text>
   </g>
   <path d="M156.5 121a10 10 0 0 0 10 -10v-70a10 10 0 0 1 10 -10">
   </path>
   <path d="M40 31a10 10 0 0 1 10 10v100a10 10 0 0 0 10 10">
   </path>
   <g class="terminal">
    <path d="M60 151h12.75">
    </path>
    <path d="M143.75 151h12.75">
    </path>
    <rect height="22" rx="10" ry="10" width="71" x="72.75" y="140">
    </rect>
    <text x="108.25" y="155">
     STRING
    </text>
   </g>
   <path d="M156.5 151a10 10 0 0 0 10 -10v-100a10 10 0 0 1 10 -10">
   </path>
   <path d="M40 31a10 10 0 0 1 10 10v130a10 10 0 0 0 10 10">
   </path>
   <g class="terminal">
    <path d="M60 181h0">
    </path>
    <path d="M156.5 181h0">
    </path>
    <rect height="22" rx="10" ry="10" width="96.5" x="60" y="170">
    </rect>
    <text x="108.25" y="185">
     STRINGSET
    </text>
   </g>
   <path d="M156.5 181a10 10 0 0 0 10 -10v-130a10 10 0 0 1 10 -10">
   </path>
   <path d="M40 31a10 10 0 0 1 10 10v160a10 10 0 0 0 10 10">
   </path>
   <g class="terminal">
    <path d="M60 211h29.75">
    </path>
    <path d="M126.75 211h29.75">
    </path>
    <rect height="22" rx="10" ry="10" width="37" x="89.75" y="200">
    </rect>
    <text x="108.25" y="215">
     ID
    </text>
   </g>
   <path d="M156.5 211a10 10 0 0 0 10 -10v-160a10 10 0 0 1 10 -10">
   </path>
   <path d="M40 31a10 10 0 0 1 10 10v190a10 10 0 0 0 10 10">
   </path>
   <g class="terminal">
    <path d="M60 241h17">
    </path>
    <path d="M139.5 241h17">
    </path>
    <rect height="22" rx="10" ry="10" width="62.5" x="77" y="230">
    </rect>
    <text x="108.25" y="245">
     IDSET
    </text>
   </g>
   <path d="M156.5 241a10 10 0 0 0 10 -10v-190a10 10 0 0 1 10 -10">
   </path>
  </g>
  <path d="M 176.5 31 h 20 m -10 -10 v 20 m 10 -20 v 20">
  </path>
 </g>
 <style>
  svg {
    width: 100%;
}

path {
    stroke-width: 3;
    stroke: black;
    fill: rgba(0,0,0,0);
}
text {
    font: bold 14px monospace;
    text-anchor: middle;
    fill: black;
}
text.diagram-text {
    font-size: 12px;
}
text.diagram-arrow {
    font-size: 16px;
}
text.label {
    text-anchor: start;
}
text.comment {
    font: italic 12px monospace;
}
g.special-sequence rect {
    fill: #ffe79a;
    stroke: black;
}
g.special-sequence text {
    font-style: italic;
}
rect {
    stroke-width: 3;
}
rect.group-box {
    stroke: gray;
    stroke-dasharray: 10 5;
    fill: none;
}
g.non-terminal rect {
    fill: #feffdf;
    stroke: black;
}
g.terminal rect {
    fill: #feffdf;
    stroke: black;
}
path.diagram-text {
    stroke-width: 3;
    stroke: black;
    fill: white;
    cursor: help;
}
g.diagram-text:hover path.diagram-text {
    fill: #eee;
}
 </style>
</svg>
